<svg id="Layer_1" data-name="Layer 1" xmlns="http://www.w3.org/2000/svg" viewBox="0 0 55 25">
  <defs>
    <style>
      .cls-1 {
        <!-- fill: #1d1d1b; -->
        fill: #fff;
      }
    </style>
  </defs>
  <g>
    <path class="cls-1" d="M22.48,21.84a5.46,5.46,0,0,0-2.18-1.43,9.14,9.14,0,0,0-3.13-.49,8.58,8.58,0,0,0-3.22.56,6.12,6.12,0,0,0-2.29,1.57,6.57,6.57,0,0,0-1.37,2.43,10,10,0,0,0-.46,3.13,10.82,10.82,0,0,0,.42,3.15c.08.24.19.45.28.67H4V15.79a.44.44,0,0,0-.09-.27.74.74,0,0,0-.33-.19,3.15,3.15,0,0,0-.6-.12,8.18,8.18,0,0,0-1-.05,8.12,8.12,0,0,0-.95.05,3.11,3.11,0,0,0-.61.12.65.65,0,0,0-.32.19.39.39,0,0,0-.1.27V33.44a1.17,1.17,0,0,0,.34,1,1.19,1.19,0,0,0,.83.29h13a9.06,9.06,0,0,0,2.66.36,8.6,8.6,0,0,0,3.23-.56,6.08,6.08,0,0,0,2.3-1.57,6.56,6.56,0,0,0,1.37-2.44,10.22,10.22,0,0,0,.45-3.12,10.92,10.92,0,0,0-.42-3.17A6,6,0,0,0,22.48,21.84ZM20.1,29.39a4.09,4.09,0,0,1-.6,1.42,2.6,2.6,0,0,1-1,.89A3.31,3.31,0,0,1,17,32a3.21,3.21,0,0,1-1.56-.34,2.47,2.47,0,0,1-1-1,4.37,4.37,0,0,1-.53-1.45,9.38,9.38,0,0,1-.17-1.82,8.33,8.33,0,0,1,.2-1.9,4.44,4.44,0,0,1,.61-1.43,2.57,2.57,0,0,1,1-.9A3.25,3.25,0,0,1,17,22.91a3.23,3.23,0,0,1,1.57.35,2.71,2.71,0,0,1,1,1,4.16,4.16,0,0,1,.53,1.45,9.34,9.34,0,0,1,.16,1.82A8.4,8.4,0,0,1,20.1,29.39Z" transform="translate(0 -15.16)"/>
    <path class="cls-1" d="M38.68,20.27H34.43a8,8,0,0,0-1.08-.21,9.18,9.18,0,0,0-1.2-.08,7.29,7.29,0,0,0-2.26.34,5.06,5.06,0,0,0-1.75,1A4.29,4.29,0,0,0,27,22.86,5,5,0,0,0,26.57,25a4.74,4.74,0,0,0,.32,1.84,4,4,0,0,0,.84,1.26,5,5,0,0,0-1.05,1.31A3.27,3.27,0,0,0,26.27,31a2.42,2.42,0,0,0,.36,1.3,2.46,2.46,0,0,0,1,.94,6.61,6.61,0,0,0-.83.72,4.92,4.92,0,0,0-.61.79,3.6,3.6,0,0,0-.37.86,3.3,3.3,0,0,0-.13,1A3.12,3.12,0,0,0,26,38a3,3,0,0,0,1.13,1.15,6.3,6.3,0,0,0,2,.75,13.63,13.63,0,0,0,2.92.27,11.23,11.23,0,0,0,3.07-.37,6.74,6.74,0,0,0,2.19-1,4.2,4.2,0,0,0,1.3-1.53,4.12,4.12,0,0,0,.44-1.87,3.87,3.87,0,0,0-.32-1.6,3.36,3.36,0,0,0-.94-1.21,4.1,4.1,0,0,0-1.5-.78,7.64,7.64,0,0,0-2-.32L31,31.34A2,2,0,0,1,30,31a.86.86,0,0,1-.39-.72,1.21,1.21,0,0,1,.15-.6,2,2,0,0,1,.32-.46,3.25,3.25,0,0,0,.9.37,4.93,4.93,0,0,0,1.23.15,7.5,7.5,0,0,0,2.29-.32,4.81,4.81,0,0,0,1.76-.95A4.11,4.11,0,0,0,37.33,27a5.21,5.21,0,0,0,.39-2.08,3,3,0,0,0-.15-.95,2,2,0,0,0-.47-.82h1.58c.16,0,.29-.11.4-.34a2.61,2.61,0,0,0,.17-1.07,2.7,2.7,0,0,0-.16-1.11C39,20.38,38.85,20.27,38.68,20.27ZM29.57,35.12a3.15,3.15,0,0,1,.38-.5,3.48,3.48,0,0,1,.62-.55l2.69.07a2.8,2.8,0,0,1,1.48.39,1.18,1.18,0,0,1,.54,1,1.85,1.85,0,0,1-.15.74,1.61,1.61,0,0,1-.51.64,2.84,2.84,0,0,1-.94.46,5.36,5.36,0,0,1-1.44.17,4.72,4.72,0,0,1-2.14-.39,1.23,1.23,0,0,1-.76-1.14,2.42,2.42,0,0,1,0-.47A1.6,1.6,0,0,1,29.57,35.12Zm4.69-9.38a2.29,2.29,0,0,1-.42.73,2,2,0,0,1-.7.5,2.5,2.5,0,0,1-1,.18,2.25,2.25,0,0,1-1.67-.6,2.15,2.15,0,0,1-.6-1.61A3,3,0,0,1,30,24a2.13,2.13,0,0,1,.42-.75,2,2,0,0,1,.69-.51,2.48,2.48,0,0,1,1-.18,2.3,2.3,0,0,1,1.7.6,2.27,2.27,0,0,1,.6,1.68A2.72,2.72,0,0,1,34.26,25.74Z" transform="translate(0 -15.16)"/>
    <path class="cls-1" d="M54.58,24.17a6.12,6.12,0,0,0-1.28-2.33,5.57,5.57,0,0,0-2.19-1.43A9.12,9.12,0,0,0,48,19.92a8.54,8.54,0,0,0-3.22.56,6,6,0,0,0-2.29,1.57,6.59,6.59,0,0,0-1.38,2.43,10.33,10.33,0,0,0-.46,3.13,10.48,10.48,0,0,0,.43,3.15,5.87,5.87,0,0,0,1.29,2.33,5.59,5.59,0,0,0,2.19,1.44,8.86,8.86,0,0,0,3.11.5,8.67,8.67,0,0,0,3.23-.56,6,6,0,0,0,2.29-1.57,6.56,6.56,0,0,0,1.37-2.44A10.22,10.22,0,0,0,55,27.34,10.92,10.92,0,0,0,54.58,24.17Zm-3.66,5.22a4.09,4.09,0,0,1-.6,1.42,2.7,2.7,0,0,1-1,.89,3.31,3.31,0,0,1-1.49.31,3.21,3.21,0,0,1-1.56-.34,2.54,2.54,0,0,1-1-1,4.6,4.6,0,0,1-.53-1.45,9.38,9.38,0,0,1-.17-1.82,7.78,7.78,0,0,1,.21-1.9,4.22,4.22,0,0,1,.6-1.43,2.64,2.64,0,0,1,1-.9,3.25,3.25,0,0,1,1.47-.31,3.2,3.2,0,0,1,1.57.35,2.63,2.63,0,0,1,1,1A4.16,4.16,0,0,1,51,25.67a9.34,9.34,0,0,1,.16,1.82A8.43,8.43,0,0,1,50.92,29.39Z" transform="translate(0 -15.16)"/>
  </g>
</svg>
